<svg width="21" height="19" fill="none" xmlns="http://www.w3.org/2000/svg" preserveAspectRatio="none slice"><path d="M10.023 5.65l.477 1.526.477-1.527c.6-1.92 1.512-3.111 2.496-3.767a3.926 3.926 0 013.104-.569C18.66 1.786 20.5 3.833 20.5 6.5c0 1.303-.593 2.676-1.55 4.033-.952 1.352-2.231 2.64-3.527 3.764a39.761 39.761 0 01-3.564 2.73 38.552 38.552 0 01-1.359.888 38.534 38.534 0 01-1.359-.887 39.758 39.758 0 01-3.564-2.731c-1.296-1.124-2.575-2.412-3.528-3.764C1.093 9.176.5 7.803.5 6.5c0-2.667 1.84-4.714 3.923-5.187a3.926 3.926 0 013.104.569c.984.656 1.896 1.847 2.496 3.767z" fill="#fff" stroke="#fff"/></svg>