<svg width="825" height="178" fill="none" xmlns="http://www.w3.org/2000/svg"><g clip-path="url(#clip0)"><path d="M35.328 134.012l7.6 7.787 46.861-48.038-7.593-7.787-46.867 48.038zm49.576-50.697l7.594 7.782 46.867-48.032-7.593-7.788-46.868 48.038zm9.683 5.69l-7.598 7.788 43.833 44.917 7.599-7.787-43.834-44.917z" fill="#000"/><path d="M44.56 37.764l-7.592 7.782L80.8 90.469l7.593-7.788-43.833-44.912v-.005z" fill="#000"/><path d="M86.826 83.454v11.003h67.509V83.454h-67.51z" fill="#000"/><path d="M21.385 83.688V94.69h67.509V83.688H21.379h.006z" fill="#000"/><path d="M92.367 19.814h-10.74V89h10.74V19.814zm0 69.186h-10.74v69.186h10.74V89z" fill="#000"/><path d="M86.842 110.071c5.453 0 10.682-2.22 14.538-6.172 3.856-3.951 6.022-9.31 6.022-14.899 0-5.588-2.166-10.948-6.022-14.9-3.856-3.95-9.085-6.17-14.538-6.17-5.453 0-10.682 2.22-14.538 6.17-3.856 3.952-6.022 9.312-6.022 14.9 0 5.588 2.166 10.948 6.022 14.899 3.856 3.952 9.085 6.172 14.538 6.172z" fill="#000"/><path d="M153.124 110.071c5.453 0 10.683-2.22 14.538-6.172 3.856-3.951 6.022-9.31 6.022-14.899 0-5.588-2.166-10.948-6.022-14.9-3.855-3.95-9.085-6.17-14.538-6.17-5.452 0-10.682 2.22-14.538 6.17-3.855 3.952-6.021 9.312-6.021 14.9 0 5.588 2.166 10.948 6.021 14.899 3.856 3.952 9.086 6.172 14.538 6.172z" fill="#FDB714"/><path d="M20.56 110.071c5.453 0 10.682-2.22 14.538-6.172 3.856-3.951 6.022-9.31 6.022-14.899 0-5.588-2.166-10.948-6.022-14.9-3.856-3.95-9.085-6.17-14.538-6.17-5.453 0-10.682 2.22-14.538 6.17C2.166 78.053 0 83.413 0 89c0 5.588 2.166 10.948 6.022 14.899 3.856 3.952 9.085 6.172 14.538 6.172z" fill="#015CAB"/><path d="M86.842 178c5.453 0 10.682-2.22 14.538-6.171 3.856-3.952 6.022-9.311 6.022-14.9 0-5.588-2.166-10.947-6.022-14.899-3.856-3.952-9.085-6.171-14.538-6.171-5.453 0-10.682 2.219-14.538 6.171-3.856 3.952-6.022 9.311-6.022 14.899 0 5.589 2.166 10.948 6.022 14.9C76.16 175.78 81.39 178 86.842 178z" fill="#00A98F"/><path d="M86.842 42.142c5.453 0 10.682-2.22 14.538-6.172 3.856-3.951 6.022-9.31 6.022-14.9 0-5.588-2.166-10.947-6.022-14.899C97.524 2.22 92.295 0 86.842 0 81.39 0 76.16 2.22 72.304 6.171c-3.856 3.952-6.022 9.311-6.022 14.9 0 5.588 2.166 10.948 6.022 14.899 3.856 3.952 9.085 6.172 14.538 6.172z" fill="#E82C2A"/><path d="M39.28 61.327c5.453 0 10.682-2.22 14.538-6.172 3.855-3.951 6.022-9.31 6.022-14.9 0-5.588-2.167-10.947-6.022-14.899-3.856-3.951-9.085-6.17-14.538-6.17-5.453 0-10.683 2.219-14.538 6.17-3.856 3.952-6.022 9.311-6.022 14.9 0 5.588 2.166 10.948 6.022 14.9 3.855 3.95 9.085 6.17 14.538 6.17z" fill="#AC0871"/><path d="M134.714 159.132c2.7 0 5.373-.545 7.868-1.604a20.546 20.546 0 006.67-4.567 21.138 21.138 0 004.457-6.836 21.536 21.536 0 001.565-8.064c0-2.767-.532-5.507-1.565-8.063a21.128 21.128 0 00-4.457-6.836 20.533 20.533 0 00-6.67-4.568 20.147 20.147 0 00-7.868-1.604c-5.453 0-10.682 2.22-14.538 6.172-3.856 3.952-6.022 9.311-6.022 14.899 0 5.589 2.166 10.948 6.022 14.9 3.856 3.951 9.085 6.171 14.538 6.171z" fill="#74A333"/><path d="M134.714 61.327c5.453 0 10.682-2.22 14.538-6.172 3.856-3.951 6.022-9.31 6.022-14.9 0-5.588-2.166-10.947-6.022-14.899-3.856-3.951-9.085-6.17-14.538-6.17-5.453 0-10.682 2.219-14.538 6.17-3.856 3.952-6.022 9.311-6.022 14.9 0 5.588 2.166 10.948 6.022 14.9 3.856 3.95 9.085 6.17 14.538 6.17z" fill="#F47521"/><path d="M39.28 159.132c2.7 0 5.373-.545 7.868-1.604a20.544 20.544 0 006.67-4.567 21.121 21.121 0 004.457-6.836 21.53 21.53 0 001.565-8.064c0-2.767-.532-5.507-1.565-8.063a21.11 21.11 0 00-4.457-6.836 20.531 20.531 0 00-6.67-4.568 20.144 20.144 0 00-7.868-1.604c-5.453 0-10.683 2.22-14.538 6.172-3.856 3.952-6.022 9.311-6.022 14.899 0 5.589 2.166 10.948 6.022 14.9 3.855 3.951 9.085 6.171 14.538 6.171z" fill="#008FB4"/><path d="M264.825 116.99V92.46h-25.472v24.53h-13.509V56.293h13.515v23.273h25.471V56.292h13.499v60.698H264.825zm36.821 0V56.293h41.429v12.265h-28.544v11.637h26.08V91.83h-26.08v12.577h29.456v12.265h-42.346v.317h.005zm59.226-48.432V56.292h49.099v12.266h-17.803v48.432H378.67V68.558h-17.803.005zm68.427-4.4c5.829-5.98 13.503-9.123 22.709-9.123 9.205 0 16.88 2.832 22.709 8.494 5.829 5.657 8.901 13.206 8.901 22.957 0 9.122-3.072 16.665-8.901 22.639-5.829 5.98-13.504 8.806-22.4 8.806-9.211 0-16.88-2.826-22.709-8.489-5.829-5.662-8.901-13.21-8.901-22.956 0-8.806 2.762-16.354 8.592-22.328zM440.04 99.69c3.376 3.46 7.365 5.346 11.968 5.346 5.525 0 9.514-1.886 12.581-5.029 3.067-3.46 4.603-7.865 4.603-13.21 0-5.34-1.536-9.746-4.912-13.206-3.371-3.46-7.36-5.034-12.272-5.034s-9.206 1.891-12.272 5.034c-3.225 3.596-4.982 8.322-4.912 13.205.304 5.034 1.845 9.123 5.216 12.894zm96.047 17.299V69.186h-11.968l-1.226 11.32c-3.68 32.079-10.736 38.687-24.859 36.167l.309-13.834c2.15.312 3.686.312 5.835-2.202.923-1.257 1.84-3.149 2.757-5.346 1.536-4.717 3.072-14.156 3.99-27.05l.922-12.266h38.667v60.698h-14.427v.317zm40.816-52.832c5.829-5.98 13.504-9.123 22.709-9.123s16.88 2.832 22.704 8.494c5.835 5.657 8.901 13.206 8.901 22.957 0 9.122-3.066 16.665-8.901 22.639-5.829 5.98-13.499 8.806-22.4 8.806-9.205 0-16.88-2.826-22.709-8.489-5.829-5.662-8.901-13.21-8.901-22.956-.304-8.806 2.768-16.354 8.597-22.328zm10.432 35.533c3.376 3.46 7.365 5.346 11.968 5.346 5.525 0 9.514-1.886 12.581-5.029 3.072-3.46 4.603-7.865 4.603-13.21 0-5.34-1.531-9.746-4.907-13.206-3.376-3.46-7.365-5.034-12.277-5.034-4.907 0-9.205 1.891-12.272 5.034-3.225 3.596-4.982 8.322-4.912 13.205.309 5.034 2.149 9.123 5.216 12.894zm61.989 17.299V56.293h37.44v12.893h-23.936v47.804h-13.504zm66.581 0h-11.963V56.293h13.504v37.741l26.389-37.742h11.968v60.698h-13.504V79.249L715.91 116.99h-.005zm93.599 0V97.494h-10.741l-11.355 19.496h-15.034l13.808-22.639c-6.134-3.782-9.206-9.122-9.206-16.67 0-6.286 2.15-11.637 6.133-15.726 4.299-4.088 10.438-6.285 19.339-6.285 1.227 0 8.592 0 12.581.311 3.99 0 5.83.311 6.747.311v60.698h-12.272zm0-32.707V69.186c-1.227-.311-7.365-.311-9.515-.311-4.602 0-8.282 3.143-8.282 7.86 0 4.405 2.763 6.92 6.133 7.548h11.664z" fill="#000"/></g><defs><clipPath id="clip0"><path fill="#fff" d="M0 0h825v178H0z"/></clipPath></defs></svg>