<svg width="1055" height="49" fill="none" xmlns="http://www.w3.org/2000/svg"><path d="M31.744 33.476c-2.736 2.223-6.384 3.534-10.203 3.534-9.234 0-15.561-6.441-15.561-15.96 0-9.462 6.156-15.96 14.82-15.96 4.161 0 7.239 1.026 9.861 2.964l2.223-3.648C30.034 1.955 25.873.53 20.743.53 8.26.53.85 9.593.85 21.05c0 12.426 8.265 20.52 20.235 20.52 4.959 0 9.918-1.71 12.597-4.446l-1.938-3.648zM35.426 48.41h4.56V41h31.008v7.41h4.56V36.44H70.14V1.1H46.655l-.399 7.98c-.855 16.701-4.902 25.308-6.555 27.36h-4.275v11.97zm15.39-35.625l.513-7.125h13.965v30.78H45.06c1.482-1.824 4.788-9.918 5.757-23.655zM83.25 41h23.086v-4.56h-18.24V23.102h15.96v-4.56h-15.96V5.66h17.67V1.1H83.251V41zM140.604 41h4.845V1.1h-23.883l-.57 7.98c-1.824 25.935-6.612 27.36-9.462 27.075L111.477 41c6.27.798 11.628-2.451 13.965-27.816l.684-7.524h14.478V41zM152.265 41h4.902l5.073-12.084h18.183L185.553 41h5.187L173.583.872h-4.161L152.265 41zM171.36 7.313l7.182 17.043h-14.364l7.182-17.043zM224.375 41h4.845V1.1h-4.845v17.271H202.43V1.1h-4.845V41h4.845V22.931h21.945V41zM238.035 21.05c0 12.141 8.778 20.52 20.349 20.52s20.349-8.664 20.349-20.52c0-12.141-8.778-20.52-20.349-20.52-11.856 0-20.349 8.949-20.349 20.52zm5.13 0c0-9.291 6.555-15.96 15.219-15.96 8.55 0 15.219 6.669 15.219 15.96 0 9.006-6.099 15.96-15.219 15.96-8.55 0-15.219-6.897-15.219-15.96zM328.155 33.476c-2.736 2.223-6.384 3.534-10.203 3.534-9.234 0-15.561-6.441-15.561-15.96 0-9.462 6.156-15.96 14.82-15.96 4.161 0 7.239 1.026 9.861 2.964l2.223-3.648C326.445 1.955 322.284.53 317.154.53c-12.483 0-19.893 9.063-19.893 20.52 0 12.426 8.265 20.52 20.235 20.52 4.959 0 9.918-1.71 12.597-4.446l-1.938-3.648zM332.387 5.66h13.965V41h4.845V5.66h13.965V1.1h-32.775v4.56zM402.824 1.1h-4.902l-10.944 25.023L372.044 1.1h-5.472l18.069 29.868-.684 1.482c-1.083 2.28-2.622 4.047-4.902 4.047-1.14 0-1.995-.285-3.078-1.026l-1.71 4.104c1.083.855 3.078 1.425 4.845 1.425 4.389 0 7.182-3.021 9.918-9.12L402.824 1.1zM400.638 48.41h4.56V41h31.008v7.41h4.56V36.44h-5.415V1.1h-23.484l-.399 7.98c-.855 16.701-4.902 25.308-6.555 27.36h-4.275v11.97zm15.39-35.625l.513-7.125h13.965v30.78h-20.235c1.482-1.824 4.788-9.918 5.757-23.655zM448.462 41h23.086v-4.56h-18.241V23.102h15.961v-4.56h-15.961V5.66h17.671V1.1h-22.516V41zM508.039 41h4.845V1.1h-4.845v17.271h-21.945V1.1h-4.845V41h4.845V22.931h21.945V41zM519.419 5.66h13.965V41h4.845V5.66h13.965V1.1h-32.775v4.56zM549.651 41h4.902l5.073-12.084h18.183L582.939 41h5.187L570.969.872h-4.161L549.651 41zm19.095-33.687l7.182 17.043h-14.364l7.182-17.043zM594.97 41h4.845V8.909l14.307 19.665h.741l14.136-19.836V41h4.845V1.1h-4.617l-14.364 20.463L599.872 1.1h-4.902V41zM650.067 41l24.225-31.92V41h4.845V1.1h-4.275l-24.225 31.92V1.1h-4.845V41h4.275zM726.705 41h9.12V1.1h-9.12v15.276H712.17V1.1h-9.12V41h9.12V24.926h14.535V41zM746.078 41h24.225v-8.55h-15.105v-7.239h12.825v-8.55h-12.825V9.65h14.535V1.1h-23.655V41zM774.304 9.65h11.97V41h9.12V9.65h11.97V1.1h-33.06v8.55zM808.467 21.05c0 12.711 9.063 20.634 21.204 20.634s21.204-8.55 21.204-20.634c0-12.711-9.063-20.634-21.204-20.634-12.711 0-21.204 9.063-21.204 20.634zm9.689 0c0-7.296 4.903-12.084 11.515-12.084 6.441 0 11.514 4.788 11.514 12.084 0 6.726-3.933 12.084-11.514 12.084-6.384 0-11.515-5.244-11.515-12.084zM879.696 41h9.12V1.1h-26.448l-.57 7.98c-1.596 22.116-5.016 23.37-8.322 22.8l-.171 9.12c9.348 1.539 14.364-2.793 16.758-23.826l.855-7.524h8.778V41zM896.249 21.05c0 12.711 9.063 20.634 21.204 20.634s21.204-8.55 21.204-20.634c0-12.711-9.063-20.634-21.204-20.634-12.711 0-21.204 9.063-21.204 20.634zm9.69 0c0-7.296 4.902-12.084 11.514-12.084 6.441 0 11.514 4.788 11.514 12.084 0 6.726-3.933 12.084-11.514 12.084-6.384 0-11.514-5.244-11.514-12.084zM946.079 41h9.12V9.65h13.68V1.1h-22.8V41zM983.116 41l17.674-24.795V41h9.12V1.1h-7.98l-17.674 24.795V1.1h-9.12V41h7.98zM1028.15 41l17.67-24.795V41h9.12V1.1h-7.98l-17.67 24.795V1.1h-9.12V41h7.98z" fill="#fff"/></svg>